<svg xmlns="http://www.w3.org/2000/svg" width="218" height="177" viewBox="0 0 218 177" fill="none">
  <path d="M28.0185 138.657C28.0185 138.657 25.9757 148.671 25.1328 160H51.89L52.99 147.871C52.99 147.857 47.5042 138.571 28.0185 138.657Z" fill="#FFC89F"/>
  <path d="M167.561 120.392C167.404 120.549 157.376 130.506 156.79 159.992H52.8471C52.8471 159.992 53.6042 153.664 50.6185 149.821C50.6185 149.821 35.9757 148.278 27.6328 138.192C27.6328 138.192 26.4042 110.164 41.7328 94.7922C43.4471 93.0636 45.7614 92.0636 48.2042 92.0064C48.2042 92.0064 52.2614 90.0064 58.3328 87.5064C64.4042 85.0207 72.4757 82.035 80.5043 80.0922C80.5043 80.0922 83.5614 71.9207 90.3185 79.4779C104.761 95.6636 122.69 67.635 129.604 78.335C132.661 81.3636 137.861 74.2493 140.419 79.035C140.419 79.035 146.019 78.3922 147.547 79.9922C147.547 79.9922 154.39 78.7922 158.947 81.3064C158.947 81.3064 171.304 80.2779 180.304 84.0064C180.319 84.035 198.819 122.064 167.561 120.392Z" fill="#1DA1F2"/>
  <path d="M123.572 77.7732V60.6875H88.5717V76.9446C88.5717 78.5018 87.3003 79.7446 85.7431 79.7161L85.2717 79.7018C85.2717 79.7018 81.1574 90.6446 86.6003 102.887C86.6003 102.887 95.6431 108.33 100.772 118.673C100.772 118.673 110.029 107.188 116.315 104.345C116.315 104.345 125.915 95.7303 126.3 80.5446C124.786 80.5161 123.572 79.2875 123.572 77.7732Z" fill="#FFC89F"/>
  <path d="M106.072 85.1625C93.2007 85.1625 82.7578 74.7196 82.7578 61.8482V33.3768C82.7578 20.5054 93.2007 10.0625 106.072 10.0625C118.944 10.0625 129.386 20.5054 129.386 33.3768V61.8482C129.386 74.7339 118.958 85.1625 106.072 85.1625Z" fill="#FFC89F"/>
  <path d="M106.073 85.167C104.059 85.3384 102.016 85.167 100.03 84.7098C99.53 84.5955 99.0443 84.4527 98.5586 84.3098C98.0729 84.167 97.6015 83.967 97.1157 83.8098C96.8729 83.7384 96.6443 83.6098 96.4157 83.5098L95.7157 83.1955C95.2586 82.9812 94.8157 82.7241 94.3586 82.4955C93.9157 82.2384 93.4872 81.9527 93.0586 81.6812C92.63 81.3955 92.23 81.0813 91.8157 80.7813C91.4157 80.467 91.03 80.1241 90.6443 79.7955C90.2586 79.4527 89.9015 79.0812 89.5443 78.7384C88.13 77.267 86.93 75.5955 86.0586 73.7812C87.2443 75.4098 88.5443 76.9241 90.0015 78.267C90.3729 78.5955 90.7443 78.9241 91.1157 79.2384C91.5015 79.5384 91.8872 79.8527 92.2872 80.1527C92.7015 80.4241 93.0872 80.7241 93.5015 80.9955C93.93 81.2527 94.33 81.5241 94.7729 81.767C95.2015 81.9955 95.63 82.2527 96.0729 82.467C96.5157 82.667 96.9586 82.8955 97.4157 83.0812C97.8729 83.267 98.33 83.467 98.7872 83.6241L99.4872 83.8527C99.7157 83.9241 99.9586 84.0241 100.187 84.0812C102.101 84.6527 104.073 84.9955 106.073 85.167Z" fill="#FA996E"/>
  <path d="M126.901 72.3281C126.587 73.3567 126.116 74.3281 125.558 75.2424C125.416 75.471 125.273 75.6996 125.13 75.9139L124.658 76.571C124.501 76.7853 124.33 76.9853 124.158 77.1996L123.63 77.8138C122.901 78.6138 122.101 79.3424 121.244 79.971C120.387 80.6138 119.458 81.171 118.473 81.5853C119.273 80.871 120.058 80.1853 120.83 79.471C121.587 78.7567 122.316 78.0138 123.016 77.2424L123.544 76.671C123.716 76.471 123.873 76.271 124.044 76.071L124.544 75.471C124.701 75.2567 124.873 75.0567 125.03 74.8567C125.658 74.0567 126.273 73.1996 126.901 72.3281Z" fill="#FA996E"/>
  <path d="M81.96 60.9286H83.1743C85.5743 60.9286 87.5172 58.9857 87.5172 56.5857V48.8429C87.5172 46.4429 85.5743 44.5 83.1743 44.5H81.96C79.56 44.5 77.6172 46.4429 77.6172 48.8429V56.5857C77.6172 58.9857 79.56 60.9286 81.96 60.9286Z" fill="#FFC89F"/>
  <path d="M128.991 60.9286H130.206C132.606 60.9286 134.548 58.9857 134.548 56.5857V48.8429C134.548 46.4429 132.606 44.5 130.206 44.5H128.991C126.591 44.5 124.648 46.4429 124.648 48.8429V56.5857C124.663 58.9857 126.606 60.9286 128.991 60.9286Z" fill="#FFC89F"/>
  <path d="M81.6178 49.0955C81.1464 49.2527 80.8321 49.6098 80.6464 49.9956C80.4464 50.3813 80.3321 50.8241 80.2607 51.267C80.1464 52.1527 80.2035 53.067 80.4464 53.9098C80.575 54.3241 80.7607 54.7241 81.0035 55.0384C81.1178 55.1955 81.2893 55.3527 81.3893 55.4098C81.4178 55.4241 81.4178 55.4241 81.4178 55.4241L81.4035 55.4384C81.4178 55.4527 81.4607 55.3955 81.5035 55.3098C81.5893 55.1527 81.6321 54.9241 81.675 54.7098C81.7178 54.4813 81.7464 54.2527 81.775 54.0241C81.8321 53.5527 81.8464 53.0813 81.8893 52.5955C82.0321 53.067 82.1178 53.5384 82.175 54.0241C82.2036 54.267 82.2178 54.5098 82.2178 54.767C82.2178 55.0241 82.1893 55.2813 82.1036 55.567C82.0464 55.7098 81.9893 55.867 81.7893 56.0241C81.6893 56.0955 81.5607 56.1384 81.4464 56.1527C81.3178 56.167 81.2178 56.1384 81.1321 56.1098C80.7893 55.967 80.6035 55.7813 80.4178 55.5813C80.0464 55.1813 79.8035 54.6813 79.6464 54.1955C79.3464 53.1955 79.3321 52.1527 79.6035 51.167C79.7464 50.6813 79.9607 50.1955 80.2893 49.7955C80.4607 49.5955 80.6607 49.4241 80.8893 49.2955C81.1178 49.1527 81.3607 49.0813 81.6178 49.0955Z" fill="#FA996E"/>
  <path d="M82.4609 51.1558C82.3324 50.8558 82.2752 50.5701 82.2324 50.2987C82.1895 50.0272 82.1466 49.7701 82.1181 49.5415C82.0895 49.2987 82.0466 49.0844 81.9895 48.9273C81.9609 48.8415 81.9181 48.7701 81.8324 48.6987C81.7466 48.6272 81.6181 48.5701 81.4609 48.513C81.5752 48.3987 81.7324 48.313 81.9181 48.2987C82.1038 48.2844 82.3181 48.3558 82.4752 48.4844C82.7895 48.7558 82.9038 49.113 82.9466 49.4273C82.9895 49.7415 82.9609 50.0558 82.8895 50.3415C82.8038 50.6272 82.6752 50.8987 82.4609 51.1558Z" fill="#FA996E"/>
  <path d="M130.733 49.0959C130.976 49.0816 131.233 49.1388 131.461 49.2673C131.69 49.3816 131.89 49.5673 132.061 49.7673C132.39 50.1673 132.604 50.653 132.747 51.1388C133.019 52.1245 133.004 53.1673 132.704 54.1673C132.547 54.6673 132.304 55.153 131.933 55.553C131.733 55.753 131.561 55.9388 131.219 56.0816C131.133 56.1102 131.019 56.1388 130.904 56.1245C130.776 56.1245 130.647 56.0673 130.561 55.9959C130.376 55.853 130.304 55.6816 130.247 55.5388C130.147 55.253 130.133 54.9959 130.133 54.7387C130.133 54.4816 130.147 54.2388 130.176 53.9959C130.233 53.5102 130.319 53.0388 130.461 52.5673C130.49 53.053 130.519 53.5245 130.576 53.9959C130.604 54.2245 130.633 54.4673 130.676 54.6816C130.719 54.8959 130.776 55.1245 130.847 55.2816C130.89 55.353 130.947 55.4102 130.947 55.4102L130.933 55.3959C130.933 55.3959 130.947 55.3959 130.961 55.3816C131.061 55.3387 131.233 55.1673 131.347 55.0102C131.604 54.6959 131.776 54.2959 131.904 53.8816C132.147 53.0387 132.204 52.1245 132.09 51.2387C132.019 50.7959 131.919 50.353 131.704 49.9673C131.519 49.6102 131.204 49.2673 130.733 49.0959Z" fill="#FA996E"/>
  <path d="M129.889 51.1558C129.674 50.913 129.546 50.6272 129.46 50.3415C129.389 50.0558 129.36 49.7415 129.403 49.4273C129.446 49.113 129.56 48.7558 129.874 48.4844C130.032 48.3558 130.246 48.2844 130.432 48.2987C130.617 48.3272 130.774 48.3987 130.889 48.513C130.732 48.5701 130.603 48.6272 130.517 48.6987C130.432 48.7701 130.389 48.8415 130.36 48.9273C130.303 49.0844 130.26 49.2987 130.232 49.5415C130.203 49.7844 130.16 50.0415 130.117 50.2987C130.074 50.5701 130.003 50.8415 129.889 51.1558Z" fill="#FA996E"/>
  <path d="M118.577 48.2156C119.736 48.2156 120.677 47.2754 120.677 46.1156C120.677 44.9558 119.736 44.0156 118.577 44.0156C117.417 44.0156 116.477 44.9558 116.477 46.1156C116.477 47.2754 117.417 48.2156 118.577 48.2156Z" fill="#1B1B2F"/>
  <path d="M122.903 42.7846C122.232 42.3703 121.532 42.0417 120.818 41.8131C120.089 41.5989 119.346 41.4703 118.603 41.4989C118.418 41.4846 118.232 41.5274 118.046 41.5274L117.76 41.556C117.66 41.5703 117.575 41.5989 117.489 41.6131L116.932 41.7131C116.746 41.7703 116.575 41.8274 116.389 41.8703L116.118 41.956L115.846 42.0703L115.303 42.2846C114.946 42.4417 114.618 42.6274 114.246 42.7846C114.546 42.5274 114.846 42.2703 115.175 42.0417L115.689 41.7417L115.946 41.5989L116.218 41.4846C116.403 41.4131 116.589 41.3274 116.775 41.256C116.975 41.1989 117.16 41.156 117.36 41.0989C117.46 41.0703 117.56 41.0417 117.66 41.0274L117.96 40.9989C118.16 40.9846 118.36 40.9417 118.575 40.956C119.389 40.9417 120.203 41.1131 120.946 41.4274C121.703 41.7274 122.375 42.1846 122.903 42.7846Z" fill="#1B1B2F"/>
  <path d="M96.5453 48.2156C97.7051 48.2156 98.6453 47.2754 98.6453 46.1156C98.6453 44.9558 97.7051 44.0156 96.5453 44.0156C95.3855 44.0156 94.4453 44.9558 94.4453 46.1156C94.4453 47.2754 95.3855 48.2156 96.5453 48.2156Z" fill="#1B1B2F"/>
  <path d="M100.876 42.7846C100.204 42.3703 99.5045 42.0417 98.7902 41.8131C98.0616 41.5989 97.3188 41.4703 96.5759 41.4989C96.3902 41.4846 96.2045 41.5274 96.0187 41.5274L95.733 41.556C95.633 41.5703 95.5473 41.5989 95.4616 41.6131L94.9045 41.7131C94.7187 41.7703 94.5473 41.8274 94.3616 41.8703L94.0902 41.956L93.8188 42.0703L93.2759 42.2846C92.9187 42.4417 92.5902 42.6274 92.2188 42.7846C92.5188 42.5274 92.8188 42.2703 93.1473 42.0417L93.6616 41.7417L93.9187 41.5989L94.1902 41.4846C94.3759 41.4131 94.5616 41.3274 94.7473 41.256C94.9473 41.1989 95.133 41.156 95.333 41.0989C95.433 41.0703 95.533 41.0417 95.633 41.0274L95.933 40.9989C96.133 40.9846 96.333 40.9417 96.5473 40.956C97.3616 40.9417 98.1759 41.1131 98.9187 41.4274C99.6759 41.7274 100.362 42.1846 100.876 42.7846Z" fill="#1B1B2F"/>
  <path d="M110.063 50.9062C110.305 51.792 110.491 52.6777 110.663 53.5777C110.834 54.4634 110.977 55.3634 111.105 56.2634C111.163 56.7062 111.248 57.192 111.191 57.6777C111.148 58.1634 111.02 58.6348 110.791 59.0634C110.577 59.492 110.234 59.892 109.805 60.1205C109.391 60.3205 108.991 60.5205 108.562 60.692C108.92 60.4062 109.291 60.1491 109.663 59.8777C110.005 59.6348 110.234 59.2634 110.405 58.8777C110.563 58.4777 110.648 58.0634 110.663 57.6348C110.691 57.2062 110.62 56.792 110.548 56.3348C110.434 55.4348 110.305 54.5348 110.234 53.6348C110.134 52.7348 110.077 51.8205 110.063 50.9062Z" fill="#1B1B2F"/>
  <path d="M122.906 38.2221C121.934 38.1649 121.206 38.1078 120.506 38.0792C119.82 38.0506 119.22 38.0363 118.606 38.0506C118.534 38.0506 118.449 38.0506 118.377 38.0506L118.149 38.0649C118.077 38.0649 117.992 38.0649 117.92 38.0649C117.849 38.0649 117.763 38.0792 117.692 38.0792C117.534 38.0935 117.377 38.0935 117.206 38.0935C117.049 38.1078 116.877 38.122 116.692 38.1363C116.606 38.1363 116.52 38.1363 116.42 38.1363C116.334 38.1506 116.249 38.1649 116.149 38.1649C115.963 38.1792 115.777 38.1935 115.563 38.1935C115.163 38.222 114.749 38.2506 114.234 38.2078C114.306 37.9792 114.406 37.7649 114.52 37.5649C114.634 37.3649 114.749 37.1649 114.892 36.9792C115.034 36.8078 115.192 36.6506 115.363 36.4935C115.449 36.4078 115.534 36.3363 115.62 36.2649C115.706 36.1935 115.806 36.1363 115.906 36.0649C116.092 35.9363 116.306 35.822 116.506 35.7078C116.72 35.622 116.934 35.5363 117.163 35.4649C117.277 35.422 117.392 35.3935 117.506 35.3649L117.863 35.3078C118.106 35.2792 118.334 35.2363 118.577 35.2363C119.534 35.2078 120.492 35.4935 121.277 35.9935C121.377 36.0506 121.463 36.1363 121.563 36.1935C121.649 36.2649 121.749 36.3363 121.834 36.4078C122.006 36.5649 122.163 36.7363 122.306 36.922C122.563 37.322 122.806 37.7363 122.906 38.2221Z" fill="#1B1B2F"/>
  <path d="M100.875 38.2221C99.9031 38.1649 99.1746 38.1078 98.4746 38.0792C97.7888 38.0506 97.1888 38.0363 96.5746 38.0506C96.5031 38.0506 96.4174 38.0506 96.346 38.0506L96.1174 38.0649C96.046 38.0649 95.9603 38.0649 95.8888 38.0649C95.8174 38.0649 95.7317 38.0792 95.6603 38.0792C95.5031 38.0935 95.346 38.0935 95.1746 38.0935C95.0174 38.1078 94.846 38.122 94.6603 38.1363C94.5746 38.1363 94.4888 38.1363 94.3888 38.1363C94.3031 38.1506 94.2174 38.1649 94.1174 38.1649C93.9317 38.1792 93.746 38.1935 93.5317 38.1935C93.1317 38.222 92.7174 38.2506 92.2031 38.2078C92.2746 37.9792 92.3746 37.7649 92.4888 37.5649C92.6031 37.3649 92.7174 37.1649 92.8603 36.9792C93.0031 36.8078 93.1603 36.6506 93.3317 36.4935C93.4174 36.4078 93.5031 36.3363 93.5888 36.2649C93.6746 36.1935 93.7746 36.1363 93.8746 36.0649C94.0603 35.9363 94.2746 35.822 94.4746 35.7078C94.6888 35.622 94.9031 35.5363 95.1317 35.4649C95.246 35.422 95.3603 35.3935 95.4746 35.3649L95.8317 35.3078C96.0746 35.2792 96.3031 35.2363 96.546 35.2363C97.5031 35.2078 98.4603 35.4935 99.246 35.9935C99.346 36.0506 99.4317 36.1363 99.5317 36.1935C99.6174 36.2649 99.7174 36.3363 99.8031 36.4078C99.9746 36.5649 100.132 36.7363 100.275 36.922C100.546 37.322 100.775 37.7363 100.875 38.2221Z" fill="#1B1B2F"/>
  <path d="M85.6594 33.0196L86.588 32.5339L85.6594 38.2054L82.8594 41.0482C82.8594 41.0482 83.3309 52.1339 83.1737 52.1339C83.0166 52.1339 79.288 41.5339 79.288 32.8482C79.288 32.8482 76.5023 35.3768 80.1309 39.4196C80.1309 39.4196 75.0594 38.6768 77.4594 34.3054C78.3166 32.7339 79.1023 31.1196 79.7023 29.4339C79.7309 29.3768 79.7451 29.3054 79.7737 29.2482L78.4309 31.0768C78.4309 31.0768 77.4451 29.2482 79.5309 26.1054C79.5309 26.1054 74.9309 29.5625 74.8737 34.4768C74.8737 34.4768 73.1023 28.7482 78.7309 24.7911C78.7309 24.7911 78.088 21.3911 81.6023 16.1625C81.6023 16.1625 79.0166 17.9339 78.2166 20.5768C78.2166 20.5768 76.5594 14.2625 86.6166 11.9911C86.6166 11.9911 88.3594 7.00535 95.0023 9.4625C95.0023 9.4625 92.7451 1.73393 102.074 0.5625C102.074 0.5625 95.1023 2.53393 96.388 8.74821C96.388 8.74821 99.3737 -1.48036 109.188 2.31964C109.188 2.31964 112.245 1.73393 113.817 5.23393C113.817 5.23393 119.074 7.93393 122.288 5.23393C122.288 5.23393 121.074 8.59107 117.445 6.91964C117.445 6.91964 119.574 8.37679 122.288 8.09107C124.988 7.80536 126.131 10.6482 126.131 10.6482C126.131 10.6482 132.802 10.0054 132.588 17.9768C132.588 17.9768 141.631 23.1625 138.974 30.3196C138.974 30.3196 139.345 24.0911 131.959 20.6625C131.959 20.6625 140.274 29.6054 136.559 34.0196C136.559 34.0196 137.317 31.2054 134.345 28.2911L132.659 33.7196C132.659 33.7196 135.631 38.3196 134.174 40.2911C134.174 40.2911 133.588 35.6911 132.431 34.0768C132.431 34.0768 133.231 43.5625 129.159 48.7482L129.359 41.3911L126.802 37.4196L126.145 29.3196C126.145 29.3196 120.431 25.6768 120.631 25.6768C120.831 25.6768 122.274 25.1339 122.274 25.1339C122.274 25.1339 119.645 19.9482 112.159 22.5054L112.359 21.6339L109.474 22.9196L110.059 21.1625L107.631 22.9196L105.202 22.1054L105.731 23.0482L100.931 21.7625L101.517 22.5054C101.517 22.5054 92.588 22.9054 86.8023 28.9768L88.3166 28.5054L85.6594 33.0196Z" fill="#1B1B2F"/>
  <path d="M94.8021 6.63281C94.7736 7.33281 94.8736 8.00424 95.0164 8.67567C95.0736 9.01852 95.1878 9.33281 95.2735 9.66139C95.3735 9.98996 95.5021 10.3042 95.6021 10.6328C96.1021 11.9042 96.7736 13.1042 97.545 14.2185C98.2878 15.3614 99.1878 16.4042 100.088 17.4471L101.516 18.9471C102.016 19.4185 102.516 19.9042 103.002 20.4042C102.431 20.0042 101.888 19.5757 101.331 19.1614C100.802 18.7042 100.288 18.2471 99.7735 17.7614C99.5307 17.5042 99.2878 17.2614 99.045 17.0042C98.8021 16.7471 98.5593 16.5042 98.345 16.2185L97.6878 15.4042C97.4593 15.1328 97.2878 14.8328 97.0736 14.5471C96.2878 13.39 95.6164 12.1328 95.1878 10.79C95.0878 10.4471 94.9878 10.1185 94.9164 9.77567C94.8593 9.43281 94.7736 9.08996 94.745 8.73281C94.6736 8.03281 94.645 7.31853 94.8021 6.63281Z" fill="#1F4068"/>
  <path d="M99.4194 5.80469C99.2051 6.37612 99.0908 6.96183 99.0194 7.54755C98.9336 8.13326 98.9337 8.73326 98.9622 9.31897C99.0194 10.4904 99.2622 11.6618 99.6194 12.7761C99.7194 13.0618 99.7908 13.3333 99.9051 13.619L100.248 14.4333C100.305 14.5761 100.348 14.7047 100.419 14.8475L100.619 15.2475C100.748 15.519 100.877 15.7761 101.005 16.0475L101.877 17.6047C102.205 18.1047 102.519 18.619 102.834 19.1333C102.434 18.6904 102.048 18.219 101.648 17.7475C101.305 17.2475 100.948 16.7618 100.619 16.2475C100.005 15.2047 99.4336 14.1047 99.0908 12.9333C98.7336 11.7618 98.5051 10.5333 98.5337 9.30469C98.5622 8.6904 98.6194 8.07612 98.7622 7.47612C98.9051 6.90469 99.1051 6.31897 99.4194 5.80469Z" fill="#1F4068"/>
  <path d="M109.461 19.7728C110.104 18.9871 110.704 18.1728 111.275 17.3442C111.832 16.5156 112.332 15.6442 112.775 14.7585L113.09 14.0871C113.19 13.8585 113.261 13.6299 113.361 13.4013C113.404 13.2871 113.461 13.1728 113.504 13.0585L113.618 12.7013L113.732 12.3442C113.775 12.2299 113.818 12.1013 113.832 11.9871C114.09 11.0299 114.189 10.0299 114.218 9.01562C114.404 10.0156 114.432 11.0585 114.247 12.0871C114.061 13.1013 113.732 14.1013 113.289 15.0299C112.832 15.9585 112.275 16.8299 111.632 17.6299C110.99 18.4013 110.275 19.1442 109.461 19.7728Z" fill="#1F4068"/>
  <path d="M107 19.5683C106.785 19.0683 106.657 18.554 106.557 18.0254C106.471 17.4969 106.414 16.9683 106.414 16.4254C106.414 15.8826 106.471 15.354 106.571 14.8254C106.671 14.2969 106.843 13.7826 107.086 13.2969C107.071 13.8397 107.028 14.354 107.014 14.8683C107 15.3826 106.985 15.8969 106.985 16.4254L107 17.9826C107.014 18.5112 107.014 19.0397 107 19.5683Z" fill="#1F4068"/>
  <path d="M111.633 18.4897C112.59 17.3468 113.676 16.3325 114.804 15.3754C115.947 14.4182 117.161 13.5468 118.447 12.7897C119.733 12.0468 121.104 11.3897 122.547 10.9897C123.99 10.5754 125.533 10.4182 126.99 10.6897C125.504 10.6468 124.061 10.9182 122.676 11.4039C121.99 11.6468 121.304 11.9182 120.661 12.2468C120.004 12.5611 119.361 12.9039 118.733 13.2754C117.461 14.0039 116.261 14.8468 115.076 15.7182C113.904 16.5897 112.747 17.5182 111.633 18.4897Z" fill="#1F4068"/>
  <path d="M119.273 16.2911C120.445 15.6911 121.759 15.4197 123.073 15.3197C124.388 15.2197 125.716 15.3197 127.016 15.5626C128.316 15.8197 129.588 16.2197 130.773 16.7911C131.959 17.3626 133.073 18.0911 134.016 19.0054C132.931 18.2768 131.788 17.6768 130.588 17.1911C129.402 16.7197 128.159 16.3483 126.902 16.1197C125.645 15.8768 124.359 15.7626 123.073 15.7626C121.816 15.7626 120.531 15.9054 119.273 16.2911Z" fill="#1F4068"/>
  <path d="M135.989 30.6058C135.46 29.9058 134.903 29.2344 134.318 28.6058C133.732 27.9772 133.132 27.3629 132.475 26.7915C131.832 26.2201 131.161 25.6772 130.461 25.1772C129.761 24.6629 129.018 24.2201 128.289 23.7344C129.132 24.0058 129.946 24.3487 130.703 24.8058C131.089 25.0201 131.446 25.2772 131.818 25.5344C132.003 25.6629 132.16 25.8058 132.346 25.9487C132.518 26.0915 132.689 26.2201 132.86 26.3772C133.518 26.9629 134.132 27.6201 134.661 28.3344C135.189 29.0201 135.66 29.7772 135.989 30.6058Z" fill="#1F4068"/>
  <path d="M83.4883 12.9759C84.1169 12.5473 84.8454 12.2473 85.5883 12.0473C85.774 12.0045 85.9597 11.9473 86.1454 11.9045L86.7169 11.8045C87.1026 11.7616 87.4883 11.7188 87.874 11.7188C88.074 11.7188 88.2597 11.7187 88.4597 11.733C88.6597 11.7473 88.8454 11.7616 89.0454 11.7759C89.4311 11.8473 89.8169 11.8902 90.174 12.0187C90.9169 12.2045 91.6311 12.5473 92.2597 12.9616C91.5169 12.7616 90.8026 12.5473 90.074 12.4473C89.3454 12.3187 88.6169 12.2616 87.874 12.2759C87.1454 12.2759 86.4026 12.333 85.674 12.4616C84.9454 12.5902 84.2169 12.7473 83.4883 12.9759Z" fill="#1F4068"/>
  <path d="M100.559 21.3289C99.4445 20.8003 98.3017 20.3432 97.1588 19.9432C96.5874 19.7432 96.0017 19.5575 95.416 19.4146C94.8302 19.2575 94.2445 19.1289 93.6445 19.0575C93.0445 18.9718 92.4445 18.9289 91.8588 18.9432C91.2588 18.9432 90.6731 19.0432 90.1017 19.2003C89.5302 19.3718 88.9874 19.6003 88.4874 19.9432C87.9874 20.2861 87.5588 20.7003 87.1445 21.1718C87.4445 20.6289 87.8445 20.1432 88.316 19.7146C88.8017 19.3003 89.3731 18.9861 89.9731 18.7718C91.1874 18.3289 92.4874 18.3289 93.7302 18.4861C94.9731 18.6718 96.1874 19.0289 97.3302 19.5146C98.4588 20.0289 99.5588 20.6146 100.559 21.3289Z" fill="#1F4068"/>
  <path d="M101.446 22.5323C100.446 22.4323 99.4604 22.3751 98.4604 22.3609C97.4604 22.3323 96.4747 22.3466 95.4889 22.3894C94.5032 22.4466 93.5175 22.518 92.5318 22.6608C91.5461 22.7894 90.5747 22.9608 89.6175 23.2037C88.6604 23.4323 87.7175 23.718 86.8032 24.0751C85.8889 24.4323 85.0032 24.8609 84.1461 25.3609C83.3032 25.8609 82.5032 26.4466 81.7604 27.1037C81.0175 27.7608 80.3747 28.518 79.7461 29.3037C80.2604 28.4466 80.8747 27.6466 81.5604 26.918C82.2747 26.2037 83.0461 25.5609 83.9032 25.0037C84.7604 24.4609 85.6604 24.0037 86.5889 23.6037C87.5318 23.2323 88.4889 22.9323 89.4747 22.6751C91.4461 22.2037 93.4604 21.9894 95.4604 21.9751C97.489 21.9323 99.4889 22.1037 101.446 22.5323Z" fill="#1F4068"/>
  <path d="M76.9297 26.3665C77.344 25.7808 77.8725 25.2808 78.444 24.8379C79.0154 24.3951 79.644 24.0236 80.3011 23.7236C80.6297 23.5665 80.9725 23.4522 81.3154 23.3379C81.6725 23.2522 82.0154 23.1236 82.3725 23.0808C83.0868 22.9379 83.8154 22.9236 84.5297 22.9951C83.8297 23.1522 83.144 23.2808 82.4725 23.5094C81.8011 23.7094 81.1583 23.9522 80.5297 24.2379C79.9011 24.5094 79.2868 24.8379 78.6868 25.1951C78.0868 25.5665 77.5011 25.9522 76.9297 26.3665Z" fill="#1F4068"/>
  <path d="M124.688 28.4531C125.388 28.7103 126.045 29.0388 126.688 29.3817C127.33 29.7388 127.945 30.1246 128.559 30.5388C129.159 30.9531 129.759 31.396 130.316 31.8674C130.888 32.3388 131.416 32.8388 131.916 33.3817C131.273 33.0246 130.659 32.6246 130.059 32.2246C129.445 31.8246 128.845 31.4246 128.245 31.0103C127.645 30.596 127.045 30.196 126.459 29.7674C125.859 29.3388 125.273 28.9103 124.688 28.4531Z" fill="#1F4068"/>
  <path d="M78.5898 33.8908C78.6756 33.3908 78.947 32.9337 79.2327 32.5194C79.5327 32.1051 79.8898 31.748 80.2756 31.4194C80.6613 31.0908 81.0756 30.8194 81.5184 30.5623C81.7327 30.4337 81.9613 30.3337 82.1898 30.2337C82.4184 30.148 82.6613 30.048 82.9041 29.9766C82.7184 30.148 82.5327 30.3051 82.3327 30.4623C82.147 30.6194 81.947 30.7766 81.7613 30.9194C81.3898 31.2337 81.0041 31.5194 80.647 31.8337C80.2756 32.148 79.9184 32.4623 79.5756 32.7909C79.2184 33.148 78.8898 33.4908 78.5898 33.8908Z" fill="#1F4068"/>
  <path d="M81.5156 38.9761C81.8156 38.319 82.1728 37.6904 82.5442 37.0618C82.9156 36.4333 83.3013 35.8333 83.7013 35.2333C84.1156 34.6333 84.5299 34.0475 84.9585 33.4761C85.4013 32.9047 85.8442 32.3333 86.3442 31.8047C86.0299 32.4761 85.6871 33.1047 85.3156 33.719C84.9442 34.3475 84.5585 34.9475 84.1585 35.5475C83.7442 36.1475 83.3442 36.7333 82.9013 37.3047C82.4728 37.8761 82.0156 38.4333 81.5156 38.9761Z" fill="#1F4068"/>
  <path d="M107.003 70.4803C109.331 70.4803 111.218 69.0157 111.218 67.2089C111.218 65.4022 109.331 63.9375 107.003 63.9375C104.676 63.9375 102.789 65.4022 102.789 67.2089C102.789 69.0157 104.676 70.4803 107.003 70.4803Z" fill="#FA996E"/>
  <path d="M110.331 69.2188C110.003 69.7045 109.517 70.0759 108.974 70.333C108.431 70.5902 107.846 70.733 107.246 70.7473C106.646 70.7759 106.046 70.6902 105.488 70.4759C104.931 70.2759 104.403 69.9473 104.031 69.5045C104.56 69.7616 105.074 69.933 105.617 70.0473C106.146 70.1616 106.688 70.1902 107.231 70.1759C108.303 70.1473 109.36 69.8473 110.331 69.2188Z" fill="#E3405A"/>
  <path d="M57.9721 159.714C57.5864 158.686 57.2721 157.629 57.0578 156.543C57.0007 156.271 56.9436 156 56.915 155.729C56.8721 155.457 56.8436 155.171 56.8007 154.914C56.7578 154.657 56.6864 154.386 56.6007 154.143C56.5579 154.014 56.5007 153.9 56.4579 153.771L56.2864 153.386C55.8579 152.371 55.4864 151.329 55.1864 150.271C54.9007 149.214 54.7007 148.114 54.7293 147C54.7721 147.543 54.8579 148.086 54.9721 148.614C55.0864 149.143 55.2293 149.671 55.4007 150.2C55.7293 151.243 56.115 152.271 56.5436 153.271L56.7007 153.643C56.7578 153.771 56.815 153.9 56.8579 154.043C56.9436 154.314 57.015 154.586 57.0578 154.857C57.0864 155 57.1007 155.143 57.115 155.271C57.1293 155.4 57.1436 155.543 57.1578 155.671C57.2007 155.943 57.2293 156.214 57.2721 156.486C57.3578 157.029 57.4721 157.557 57.5864 158.1C57.7007 158.657 57.8293 159.186 57.9721 159.714Z" fill="#FA996E"/>
  <g opacity="0.4">
    <path d="M167.562 120.388C167.404 120.545 157.376 130.488 156.79 159.988H152.519C152.862 148.702 150.219 132.931 150.219 132.931C150.219 132.931 151.019 134.959 151.547 136.002C156.062 144.945 154.89 136.788 154.504 134.974C151.833 122.374 151.962 112.559 151.962 112.559C153.704 120.559 158.19 122.845 158.19 122.845C150.004 111.159 155.49 99.0308 155.804 98.3594C155.59 98.8737 152.633 106.302 155.533 114.931C157.819 121.731 161.562 121.574 161.562 121.574C160.847 120.374 160.519 119.388 160.519 119.388C164.204 121.274 167.476 120.417 167.562 120.388Z" fill="#A65B3C"/>
  </g>
  <g opacity="0.4">
    <path d="M101.062 119.4C101.062 119.4 105.72 115.957 115.977 116.2L116.234 112.728L117.334 112.571V109.242C117.334 109.242 122.534 109.6 127.663 114.857L129.362 112.242C129.362 112.242 125.42 109.071 117.334 108.328V112.571C117.334 112.571 107.963 113.085 101.062 119.4Z" fill="#A65B3C"/>
  </g>
  <g opacity="0.4">
    <path d="M87.4339 109.095C87.4339 109.095 87.6482 105.166 85.2053 103.881C80.9196 101.609 75.8625 103.881 75.8625 103.881C74.7053 91.4377 79.1625 82.5092 80.2625 80.5234C72.9339 93.3234 75.1625 105.009 75.1625 105.009C81.6339 104.209 85.7768 109.809 85.7768 109.809C95.8339 111.823 100.12 119.409 100.12 119.409C95.2625 110.652 87.4339 109.095 87.4339 109.095Z" fill="#A65B3C"/>
  </g>
  <g opacity="0.4">
    <path d="M80.2617 80.5393C80.3474 80.3964 80.4189 80.2679 80.5046 80.125C80.5046 80.125 80.4189 80.2679 80.2617 80.5393Z" fill="#A65B3C"/>
  </g>
  <g opacity="0.4">
    <path d="M100.119 120.531C100.119 120.531 100.804 129.274 99.6328 141.003L100.119 120.531Z" fill="#A65B3C"/>
  </g>
  <g opacity="0.4">
    <path d="M149.473 115.616C149.473 115.616 148.416 104.159 156.973 94.0157C156.973 94.0014 147.087 98.3728 149.473 115.616Z" fill="#A65B3C"/>
  </g>
  <g opacity="0.4">
    <path d="M105.674 159.989C105.674 159.989 125.303 140.075 132.903 113.203C132.903 113.203 124.103 141.86 100.031 159.989H105.674Z" fill="#A65B3C"/>
  </g>
  <g opacity="0.4">
    <path d="M123.492 159.996C123.492 159.996 128.863 148.31 132.906 131.781C132.906 131.781 126.263 149.681 118.32 159.996H123.492Z" fill="#A65B3C"/>
  </g>
  <g opacity="0.4">
    <path d="M65.5625 141L70.9339 160H66.7911C67.3768 151.229 65.5625 141 65.5625 141Z" fill="#A65B3C"/>
  </g>
  <g opacity="0.4">
    <path d="M136.188 95.7777C136.188 95.7777 137.273 82.3348 147.545 80.0205C147.545 80.0205 136.63 78.1205 136.188 95.7777Z" fill="#A65B3C"/>
  </g>
  <g opacity="0.4">
    <path d="M33.7188 132.281C33.7188 132.281 35.5473 141.438 46.5045 141.61C46.5045 141.596 39.7616 142.167 33.7188 132.281Z" fill="#A65B3C"/>
  </g>
  <g opacity="0.4">
    <path d="M43.2461 136.234C43.2461 136.234 49.4461 143.277 52.3175 151.977C52.3175 151.977 46.9461 141.334 43.2461 136.234Z" fill="#A65B3C"/>
  </g>
  <g opacity="0.4">
    <path d="M38.4302 125.047C38.4302 125.047 38.1302 129.79 42.6587 135.69C42.6587 135.69 37.2016 131.775 38.4302 125.047Z" fill="#A65B3C"/>
  </g>
  <path d="M105.672 159.989C106.458 159.175 107.215 158.317 107.972 157.475C108.729 156.617 109.443 155.746 110.172 154.875C110.529 154.432 110.886 154.003 111.243 153.546C111.6 153.103 111.943 152.66 112.3 152.203C113 151.303 113.686 150.403 114.358 149.489C115.043 148.575 115.715 147.66 116.358 146.732C116.686 146.275 117.015 145.803 117.329 145.332C117.658 144.86 117.972 144.389 118.272 143.917C119.529 142.017 120.7 140.075 121.815 138.089C124.058 134.132 126.072 130.06 127.929 125.903C129.758 121.746 131.415 117.517 132.886 113.203L132.915 113.217C131.615 117.575 130.029 121.86 128.2 126.032C127.272 128.117 126.3 130.175 125.258 132.189C124.743 133.203 124.186 134.203 123.658 135.203C123.1 136.189 122.543 137.189 121.958 138.16C121.386 139.146 120.772 140.103 120.186 141.089C119.586 142.046 118.972 143.017 118.358 143.975L117.9 144.689L117.429 145.403C117.115 145.875 116.815 146.36 116.486 146.832C115.858 147.775 115.2 148.717 114.543 149.632C114.2 150.089 113.872 150.56 113.529 151.003C113.186 151.46 112.843 151.917 112.486 152.36C112.129 152.803 111.786 153.26 111.415 153.689C111.058 154.132 110.686 154.575 110.329 155.003C108.858 156.732 107.329 158.446 105.686 160.003L105.672 159.989Z" fill="#A65B3C"/>
  <path d="M123.488 159.994C123.974 158.851 124.431 157.694 124.874 156.537C125.331 155.38 125.774 154.223 126.188 153.051C127.045 150.723 127.874 148.38 128.645 146.023C129.431 143.666 130.174 141.308 130.874 138.923C131.588 136.551 132.245 134.151 132.903 131.766C132.76 132.366 132.631 132.98 132.488 133.58C132.345 134.18 132.203 134.794 132.045 135.394C131.731 136.594 131.431 137.794 131.088 138.994C130.917 139.594 130.76 140.194 130.574 140.78L130.031 142.566C129.86 143.166 129.66 143.751 129.474 144.337C129.288 144.923 129.103 145.523 128.903 146.108L128.303 147.866L127.688 149.623C127.488 150.208 127.26 150.794 127.045 151.38C126.931 151.666 126.831 151.966 126.717 152.251L126.374 153.123C126.145 153.708 125.917 154.28 125.688 154.851C125.46 155.423 125.217 155.994 124.988 156.58C124.517 157.737 124.031 158.88 123.488 159.994Z" fill="#A65B3C"/>
  <path d="M70.9339 159.986C70.3625 158.443 69.8339 156.886 69.3339 155.314C68.8339 153.743 68.3625 152.171 67.9054 150.586C67.4482 149 67.0339 147.414 66.6339 145.814C66.2339 144.214 65.8768 142.614 65.5625 141C65.7911 141.786 65.9768 142.586 66.2054 143.386L66.8482 145.771C67.2911 147.357 67.7196 148.943 68.1768 150.529C68.6196 152.114 69.0911 153.686 69.5482 155.271L70.9339 159.986Z" fill="#A65B3C"/>
  <path d="M158.175 122.858C156.832 121.172 155.832 119.244 155.061 117.229C154.29 115.215 153.804 113.087 153.604 110.944C153.547 110.401 153.532 109.872 153.504 109.329C153.504 109.058 153.504 108.787 153.504 108.515C153.504 108.387 153.504 108.244 153.504 108.115L153.518 107.715C153.561 106.644 153.675 105.558 153.875 104.501C153.975 103.972 154.075 103.444 154.218 102.915C154.29 102.658 154.347 102.387 154.418 102.129L154.647 101.358L154.761 100.972L154.904 100.587L155.175 99.8295C155.361 99.3295 155.59 98.8295 155.79 98.3438L155.518 99.1009L155.375 99.4723C155.332 99.6009 155.275 99.7295 155.247 99.858L155.004 100.629L154.89 101.015L154.79 101.401L154.575 102.172C154.504 102.429 154.461 102.701 154.39 102.958C154.261 103.472 154.19 104.001 154.09 104.529C154.061 104.658 154.047 104.787 154.032 104.929L153.99 105.329C153.961 105.601 153.918 105.858 153.89 106.129L153.818 106.929C153.79 107.201 153.79 107.458 153.775 107.729L153.761 108.129C153.761 108.258 153.761 108.401 153.761 108.529C153.761 108.801 153.761 109.058 153.775 109.329C153.804 109.858 153.818 110.401 153.875 110.929C153.975 111.987 154.132 113.044 154.361 114.087C154.59 115.129 154.904 116.158 155.247 117.158C155.604 118.158 156.018 119.158 156.504 120.101C157.004 121.058 157.547 121.987 158.175 122.858Z" fill="#A65B3C"/>
  <path d="M154.433 134.477C154.219 133.577 154.019 132.677 153.819 131.777C153.633 130.877 153.462 129.977 153.291 129.062C152.962 127.248 152.691 125.42 152.462 123.605C152.248 121.777 152.076 119.934 151.976 118.105C151.962 117.648 151.933 117.191 151.919 116.72C151.905 116.262 151.891 115.805 151.891 115.334L151.905 113.948C151.919 113.491 151.933 113.034 151.948 112.562C151.962 113.02 151.976 113.477 151.976 113.948L152.033 115.32L152.105 116.691C152.133 117.148 152.162 117.605 152.205 118.063C152.348 119.891 152.519 121.72 152.748 123.548C152.962 125.377 153.233 127.191 153.505 129.005C153.648 129.92 153.791 130.82 153.948 131.734C154.119 132.677 154.276 133.577 154.433 134.477Z" fill="#A65B3C"/>
  <path d="M149.474 115.614C149.331 113.671 149.474 111.7 149.746 109.771C149.874 108.8 150.074 107.843 150.289 106.886C150.517 105.929 150.774 104.986 151.089 104.057C151.403 103.129 151.76 102.214 152.16 101.329L152.474 100.657C152.574 100.429 152.689 100.214 152.803 100C152.917 99.7857 153.017 99.5571 153.146 99.3429L153.503 98.7C153.617 98.4857 153.76 98.2857 153.889 98.0714C154.017 97.8714 154.146 97.6571 154.274 97.4571C154.546 97.0571 154.817 96.6428 155.117 96.2571C155.689 95.4714 156.331 94.7286 156.989 94C156.374 94.7571 155.774 95.5143 155.231 96.3286C154.946 96.7286 154.689 97.1428 154.431 97.5428C154.303 97.7428 154.189 97.9571 154.06 98.1714C153.946 98.3857 153.817 98.5857 153.703 98.8C153.231 99.6571 152.803 100.529 152.417 101.414C152.031 102.3 151.689 103.214 151.374 104.129C150.76 105.971 150.289 107.857 149.974 109.771C149.817 110.729 149.689 111.7 149.617 112.671C149.503 113.657 149.46 114.629 149.474 115.614Z" fill="#A65B3C"/>
  <path d="M136.188 95.7728C136.245 94.9013 136.387 94.0442 136.545 93.2013C136.716 92.3442 136.93 91.5013 137.187 90.6728C137.702 89.0156 138.388 87.4013 139.302 85.9156C139.759 85.1728 140.273 84.4728 140.859 83.8013C141.445 83.1442 142.087 82.5585 142.787 82.0299C143.487 81.5013 144.259 81.0871 145.059 80.7299L145.673 80.4871C145.873 80.4156 146.088 80.3585 146.302 80.3013L146.616 80.2156C146.716 80.1871 146.83 80.1728 146.93 80.1442L147.573 80.0156C146.73 80.2299 145.902 80.4871 145.13 80.8585L144.987 80.9299L144.845 81.0013L144.559 81.1585L144.273 81.3156C144.173 81.3585 144.087 81.4299 144.002 81.4871C143.816 81.6013 143.645 81.7156 143.459 81.8299L142.945 82.2156C142.273 82.7442 141.645 83.3442 141.088 83.9871C140.53 84.6442 140.03 85.3299 139.573 86.0728C139.116 86.8013 138.73 87.5728 138.373 88.3442C138.016 89.1299 137.702 89.9299 137.43 90.7442C137.159 91.5585 136.916 92.3871 136.716 93.2299C136.473 94.0728 136.302 94.9156 136.188 95.7728Z" fill="#A65B3C"/>
  <path d="M146.203 85.1594C146.989 84.3165 147.932 83.6451 148.932 83.0737C149.932 82.5165 151.017 82.0737 152.117 81.7594C153.232 81.4451 154.375 81.2451 155.517 81.1737C156.66 81.1023 157.817 81.1451 158.946 81.3165C157.803 81.2594 156.66 81.288 155.532 81.4023C155.389 81.4165 155.246 81.4308 155.103 81.4451L154.675 81.5023C154.389 81.5451 154.117 81.588 153.832 81.6451C153.275 81.7451 152.717 81.888 152.175 82.0308C151.632 82.1737 151.089 82.3737 150.56 82.5737C150.032 82.7737 149.517 83.0166 149.003 83.2737C148.503 83.5308 148.003 83.8166 147.532 84.1308C147.089 84.4451 146.617 84.788 146.203 85.1594Z" fill="#A65B3C"/>
  <path d="M160.805 89.0767C161.59 87.9767 162.59 87.0482 163.676 86.2624C164.776 85.4767 165.976 84.8196 167.233 84.3482C167.862 84.1053 168.519 83.9053 169.176 83.7624C169.505 83.6767 169.833 83.6196 170.176 83.5625C170.505 83.5053 170.848 83.4625 171.176 83.4196C172.519 83.2767 173.876 83.3053 175.205 83.4767C173.862 83.4053 172.519 83.4625 171.205 83.6339C171.033 83.6482 170.876 83.6767 170.705 83.7053C170.548 83.7339 170.376 83.7625 170.219 83.791C169.89 83.8625 169.562 83.9196 169.248 84.0053C168.919 84.0767 168.605 84.1767 168.29 84.2767C167.976 84.3767 167.662 84.4767 167.348 84.6053C166.719 84.8339 166.119 85.1053 165.519 85.4196C164.933 85.7196 164.362 86.0624 163.805 86.4482C163.248 86.8196 162.719 87.2339 162.219 87.6624C161.719 88.091 161.233 88.5625 160.805 89.0767Z" fill="#A65B3C"/>
  <path d="M130.531 113.201C130.874 111.758 131.174 110.315 131.431 108.858C131.703 107.401 131.917 105.944 132.103 104.472C132.474 101.544 132.731 98.5866 132.746 95.6295C132.76 95.258 132.746 94.8866 132.746 94.5152C132.746 94.1437 132.746 93.7723 132.731 93.4009L132.703 92.2866L132.646 91.1866C132.546 89.7152 132.389 88.2437 132.16 86.7866L132.117 86.5152L132.06 86.2437L131.96 85.7009L131.86 85.158C131.817 84.9723 131.774 84.8009 131.731 84.6152C131.646 84.258 131.574 83.9009 131.474 83.5437L131.174 82.4723C130.746 81.058 130.217 79.6723 129.574 78.3438C130.274 79.658 130.831 81.0295 131.303 82.4437L131.631 83.5152C131.731 83.8723 131.817 84.2295 131.903 84.5866C131.946 84.7723 132.003 84.9437 132.031 85.1295L132.146 85.6723L132.26 86.2152L132.317 86.4866L132.36 86.758C132.874 89.6866 133.046 92.658 133.017 95.6295C133.003 97.1152 132.917 98.6009 132.803 100.072C132.674 101.544 132.531 103.029 132.303 104.487C131.903 107.429 131.331 110.344 130.531 113.201Z" fill="#A65B3C"/>
  <path d="M117.334 112.576C117.306 111.862 117.292 111.162 117.277 110.447L117.249 109.39L117.234 108.333V108.219H117.349C117.949 108.262 118.549 108.319 119.134 108.404C119.72 108.49 120.32 108.59 120.906 108.704C122.077 108.933 123.234 109.247 124.377 109.619C124.949 109.819 125.506 110.033 126.049 110.262C126.592 110.504 127.134 110.762 127.663 111.062C128.177 111.362 128.692 111.676 129.177 112.033C129.663 112.39 130.12 112.776 130.534 113.204C130.077 112.819 129.606 112.462 129.106 112.133C128.606 111.819 128.092 111.519 127.563 111.247C126.506 110.704 125.406 110.262 124.277 109.904C123.149 109.533 122.006 109.233 120.834 108.99C119.677 108.747 118.492 108.562 117.32 108.447L117.434 108.347L117.42 109.404L117.392 110.462C117.377 111.162 117.363 111.876 117.334 112.576Z" fill="#A65B3C"/>
  <path d="M101.062 119.407C102.134 118.35 103.32 117.421 104.591 116.621C105.863 115.821 107.205 115.135 108.605 114.578C110.005 114.021 111.448 113.592 112.905 113.264C114.363 112.935 115.848 112.707 117.348 112.578C115.877 112.821 114.405 113.121 112.963 113.478C111.52 113.85 110.091 114.292 108.72 114.85C107.334 115.392 105.991 116.05 104.72 116.807C103.42 117.578 102.205 118.435 101.062 119.407Z" fill="#A65B3C"/>
  <path d="M85.2031 103.875C85.6603 104.075 86.0174 104.446 86.3317 104.832C86.6317 105.232 86.8603 105.675 87.046 106.146C87.2174 106.618 87.346 107.104 87.4174 107.589C87.5031 108.075 87.546 108.575 87.5603 109.075L87.4603 108.961C88.1603 109.118 88.8174 109.346 89.4888 109.604C90.146 109.861 90.7888 110.161 91.4174 110.489C92.6603 111.146 93.846 111.932 94.9317 112.832C96.0317 113.718 97.0031 114.746 97.8888 115.846C98.3174 116.404 98.746 116.961 99.1031 117.561C99.3031 117.846 99.4603 118.161 99.646 118.461C99.8174 118.761 99.9746 119.075 100.146 119.389C99.9603 119.089 99.7888 118.789 99.6031 118.489C99.4174 118.204 99.2317 117.904 99.0174 117.618L98.7174 117.189L98.4031 116.775C98.2031 116.489 97.9746 116.232 97.746 115.961C97.2888 115.432 96.8317 114.904 96.3174 114.432C96.1888 114.304 96.0746 114.189 95.946 114.075L95.5603 113.718C95.3031 113.489 95.0317 113.261 94.7603 113.046C93.6888 112.161 92.5031 111.404 91.2746 110.746C90.6603 110.418 90.0317 110.118 89.3888 109.861C88.746 109.604 88.0746 109.375 87.4174 109.218L87.3174 109.189V109.089C87.3031 108.604 87.2888 108.118 87.2174 107.632C87.146 107.146 87.046 106.675 86.8888 106.204C86.7317 105.746 86.5317 105.289 86.2603 104.889C86.1174 104.689 85.9746 104.504 85.7888 104.318C85.6174 104.161 85.4317 103.989 85.2031 103.875Z" fill="#A65B3C"/>
  <path d="M75.8906 103.876C76.2335 103.676 76.6192 103.533 76.9906 103.376C77.3763 103.248 77.7621 103.133 78.1478 103.048C78.9335 102.876 79.7478 102.776 80.5478 102.79C81.3478 102.805 82.162 102.876 82.9478 103.076C83.3478 103.148 83.7192 103.29 84.1049 103.405C84.2906 103.462 84.4763 103.548 84.662 103.633C84.8478 103.705 85.0335 103.79 85.2049 103.876C85.0049 103.819 84.8192 103.762 84.6335 103.705C84.4478 103.648 84.262 103.576 84.062 103.548C83.6763 103.462 83.2906 103.348 82.9049 103.29L82.6192 103.233C82.5192 103.219 82.4192 103.19 82.3335 103.19L81.7478 103.133C81.5478 103.105 81.3478 103.105 81.162 103.09C80.962 103.076 80.7621 103.062 80.5763 103.076C80.3763 103.076 80.1763 103.076 79.9906 103.076L79.4049 103.119C79.0049 103.148 78.6192 103.205 78.2335 103.262C77.4049 103.405 76.6335 103.59 75.8906 103.876Z" fill="#A65B3C"/>
  <path d="M99.6328 141.004C99.7042 140.147 99.7614 139.304 99.8185 138.447C99.8757 137.59 99.9328 136.747 99.99 135.89C100.09 134.19 100.176 132.475 100.233 130.775C100.261 129.918 100.29 129.075 100.29 128.218C100.319 127.361 100.304 126.518 100.304 125.661C100.29 123.961 100.233 122.247 100.119 120.547C100.347 122.247 100.476 123.947 100.533 125.661C100.59 127.375 100.561 129.09 100.519 130.79C100.461 132.504 100.361 134.204 100.204 135.918C100.061 137.604 99.8757 139.304 99.6328 141.004Z" fill="#A65B3C"/>
  <path d="M52.3188 151.977C52.0616 151.263 51.7759 150.549 51.4759 149.849L51.0187 148.806L50.5473 147.763C49.9045 146.377 49.2045 145.034 48.4473 143.706C48.0759 143.034 47.6759 142.392 47.2759 141.749C47.0759 141.42 46.8616 141.106 46.6616 140.792L46.3473 140.32L46.0187 139.849L45.3616 138.92L44.6616 138.02C44.5473 137.863 44.433 137.72 44.3188 137.563L43.9473 137.12C43.7045 136.834 43.4616 136.534 43.2188 136.234C43.4759 136.506 43.7473 136.792 44.0045 137.063L44.3902 137.477C44.5188 137.62 44.633 137.763 44.7616 137.92L45.4902 138.806C45.7187 139.106 45.9473 139.42 46.1759 139.72L46.5187 140.177L46.8473 140.649C47.0616 140.963 47.2759 141.277 47.4902 141.606C47.8902 142.263 48.3045 142.906 48.6759 143.577C49.433 144.906 50.1187 146.277 50.7187 147.677C51.3616 149.077 51.9045 150.52 52.3188 151.977Z" fill="#A65B3C"/>
  <path d="M42.6612 135.69C42.004 134.961 41.4326 134.175 40.9183 133.347C40.404 132.518 39.9469 131.647 39.5612 130.747C39.1755 129.847 38.8898 128.904 38.6755 127.961C38.4612 127.004 38.4041 126.018 38.4326 125.047C38.4612 125.29 38.4898 125.533 38.5041 125.775C38.5183 125.89 38.5183 126.018 38.5469 126.133L38.6041 126.49C38.6469 126.733 38.6755 126.961 38.7326 127.204L38.9041 127.904L38.9469 128.075L39.0041 128.247L39.1041 128.59C39.1755 128.818 39.2326 129.047 39.3183 129.275L39.5612 129.961L39.8326 130.633C40.2041 131.518 40.6469 132.39 41.1183 133.233C41.3612 133.647 41.6041 134.075 41.8612 134.475C42.1041 134.89 42.3755 135.29 42.6612 135.69Z" fill="#A65B3C"/>
  <path d="M46.5058 141.594C45.0772 141.694 43.6201 141.523 42.2201 141.166C40.8201 140.808 39.4772 140.223 38.2772 139.394C37.6772 138.98 37.1201 138.508 36.6201 137.994C36.1201 137.466 35.6772 136.894 35.2915 136.28C34.5344 135.051 34.0201 133.68 33.7344 132.266C34.1344 133.637 34.7058 134.966 35.4772 136.151C35.8772 136.737 36.3201 137.294 36.8201 137.794C37.3201 138.294 37.8629 138.751 38.4487 139.151C39.0344 139.566 39.6487 139.894 40.2915 140.194C40.9344 140.494 41.6058 140.737 42.2915 140.937C42.9772 141.137 43.6772 141.294 44.3772 141.394C45.0772 141.523 45.7915 141.594 46.5058 141.594Z" fill="#A65B3C"/>
  <path d="M43.0013 134.325C42.3013 130.91 41.9298 127.425 41.7441 123.939C41.5727 120.453 41.6298 116.953 41.9298 113.467C41.9727 113.039 42.0013 112.596 42.0584 112.167L42.2156 110.867C42.2727 110.439 42.3441 109.996 42.4013 109.567C42.4298 109.353 42.4584 109.139 42.5013 108.925L42.6156 108.282L42.7298 107.639C42.7727 107.425 42.8013 107.21 42.8584 106.996L43.1156 105.71C43.2013 105.282 43.3155 104.853 43.4155 104.439L43.5727 103.796L43.7441 103.167C44.187 101.482 44.7584 99.8245 45.387 98.196L45.887 96.9817C46.0584 96.5817 46.2441 96.1817 46.4298 95.796L46.7013 95.196C46.8013 94.996 46.9013 94.8103 47.0013 94.6103L47.6013 93.4531C46.0441 96.5674 44.8156 99.8531 43.9584 103.225L43.787 103.853L43.6441 104.496C43.5441 104.925 43.4441 105.339 43.3584 105.767L43.1013 107.053C43.0584 107.267 43.0155 107.482 42.987 107.696L42.8727 108.339L42.7584 108.982C42.7156 109.196 42.7013 109.41 42.6584 109.625C42.6013 110.053 42.5298 110.482 42.4727 110.91L42.3298 112.21C42.2727 112.639 42.2441 113.082 42.2013 113.51C41.8727 116.982 41.8298 120.467 41.9441 123.939C42.0013 125.682 42.1298 127.425 42.3013 129.153C42.487 130.882 42.7013 132.61 43.0013 134.325Z" fill="#A65B3C"/>
  <path d="M80.5012 80.125C80.0155 81.025 79.5869 81.9536 79.1869 82.8964C78.7869 83.8393 78.4297 84.7964 78.1012 85.7679C77.7869 86.7393 77.4726 87.7107 77.2155 88.6964C76.944 89.6821 76.7297 90.6821 76.544 91.6821C76.144 93.6821 75.9155 95.7107 75.7869 97.7536C75.744 98.7679 75.7012 99.7964 75.7297 100.825C75.7297 101.339 75.7583 101.854 75.7726 102.354C75.7726 102.611 75.8012 102.868 75.8155 103.125L75.8583 103.896C75.7297 102.882 75.6297 101.854 75.5726 100.839C75.5155 99.8107 75.5297 98.7821 75.544 97.7536C75.6155 95.6964 75.8583 93.6536 76.244 91.6393C76.644 89.625 77.1726 87.6393 77.8726 85.6964C78.6012 83.7679 79.4297 81.8679 80.5012 80.125Z" fill="#A65B3C"/>
  <g opacity="0.8">
    <path d="M105.176 124.829C105.845 124.16 105.845 123.074 105.176 122.405C104.506 121.736 103.421 121.736 102.751 122.405C102.082 123.074 102.082 124.16 102.751 124.829C103.421 125.499 104.506 125.499 105.176 124.829Z" fill="white"/>
  </g>
  <g opacity="0.8">
    <path d="M105.651 133.935C105.803 133.001 105.168 132.12 104.234 131.968C103.299 131.817 102.418 132.451 102.267 133.386C102.115 134.321 102.75 135.201 103.684 135.353C104.619 135.504 105.499 134.87 105.651 133.935Z" fill="white"/>
  </g>
  <path d="M217.103 159.734H0.703125V160.163H217.103V159.734Z" fill="#1B1A2E"/>
  <path d="M57.9725 159.719C57.9725 159.719 57.1725 157.262 56.9725 155.247C56.9154 154.733 56.7868 154.219 56.5868 153.733C55.9725 152.347 54.7583 149.319 54.7297 147.004C54.7011 143.933 48.2725 147.647 51.1297 154.99C51.1297 154.99 46.9297 152.133 42.7583 155.676C42.7583 155.676 40.1154 151.404 34.144 154.619C34.144 154.619 31.6868 150.919 27.044 153.747C27.044 153.747 19.4725 150.633 18.4297 159.704H22.2297L23.4154 161.076C23.4154 161.076 21.4297 166.847 26.144 168.833C26.144 168.833 25.744 173.076 27.2725 175.519C28.2868 177.133 30.7725 176.747 31.2725 174.904C31.2725 174.89 31.2868 174.862 31.2868 174.847C31.2868 174.847 32.0868 177.147 34.0297 176.804C35.6583 176.519 36.6868 174.376 36.6868 174.376C36.6868 174.376 39.9868 175.333 42.3297 171.433C44.6868 167.533 46.144 165.376 46.144 165.376L50.5583 159.704H57.9725V159.719Z" fill="#FFC89F"/>
  <path d="M42.7719 155.688C43.0862 156.473 43.1147 157.345 43.0147 158.173C43.0004 158.273 42.9862 158.388 42.9576 158.488L42.9004 158.802C42.8433 159.002 42.7862 159.216 42.729 159.416C42.6576 159.616 42.5862 159.816 42.5004 160.002C42.4147 160.188 42.329 160.388 42.229 160.573C42.129 160.759 42.0147 160.93 41.9004 161.116L41.5433 161.63C41.3004 161.973 41.0719 162.302 40.8719 162.673C40.4719 163.402 40.1719 164.173 39.9004 164.959C39.6433 165.745 39.4004 166.545 39.1719 167.345L38.5004 169.745C38.2719 170.545 38.029 171.345 37.7576 172.13C37.629 172.53 37.4719 172.916 37.3147 173.302C37.229 173.502 37.1433 173.688 37.0433 173.873C36.9433 174.059 36.829 174.245 36.7004 174.402L36.6719 174.388C36.8862 174.03 37.029 173.645 37.1719 173.259C37.3147 172.873 37.4147 172.473 37.529 172.073L38.1862 169.673C38.4147 168.873 38.6433 168.073 38.9004 167.273C39.1433 166.473 39.429 165.688 39.7433 164.916C39.9004 164.53 40.0719 164.145 40.229 163.759C40.4004 163.373 40.5862 163.002 40.7719 162.63C40.9576 162.259 41.1719 161.902 41.4004 161.545L41.7147 161.016C41.8147 160.83 41.9004 160.645 42.0004 160.473C42.3576 159.73 42.6576 158.959 42.7862 158.159C42.8576 157.759 42.8862 157.345 42.9004 156.93C42.9004 156.516 42.8576 156.102 42.7433 155.702L42.7719 155.688Z" fill="#FA996E"/>
  <path d="M34.1448 154.633C34.302 154.79 34.4162 154.976 34.5305 155.176C34.5877 155.276 34.6305 155.376 34.6734 155.476L34.7877 155.79C34.9305 156.219 35.002 156.647 35.0448 157.104C35.102 157.99 34.9591 158.89 34.7019 159.733C34.6305 159.947 34.5734 160.147 34.4877 160.361L34.2305 160.976C34.0591 161.376 33.8734 161.776 33.7162 162.176C33.3877 162.99 33.1162 163.819 32.8591 164.647C32.6162 165.49 32.3877 166.333 32.1734 167.176C31.9734 168.019 31.7734 168.876 31.6305 169.733C31.4734 170.59 31.3448 171.447 31.2734 172.319C31.202 173.19 31.1734 174.061 31.2448 174.933H31.2162C31.0448 174.076 31.0162 173.19 31.0448 172.304C31.0734 171.419 31.1877 170.547 31.3305 169.676C31.4734 168.804 31.6877 167.961 31.9162 167.104C32.1448 166.261 32.4162 165.419 32.7162 164.59L33.1734 163.361L33.402 162.747L33.6305 162.133C33.7734 161.719 33.9448 161.319 34.0877 160.904L34.3019 160.29C34.3734 160.09 34.4162 159.876 34.4734 159.661C34.6877 158.819 34.8305 157.976 34.8162 157.104C34.802 156.676 34.7448 156.247 34.6305 155.833C34.5162 155.419 34.3591 155.004 34.102 154.661L34.1448 154.633Z" fill="#FA996E"/>
  <path d="M26.1445 168.851C26.2302 168.88 26.316 168.908 26.4017 168.923C26.4874 168.951 26.5731 168.966 26.6588 168.98C26.8302 168.994 26.9874 168.937 27.116 168.837C27.2445 168.737 27.3302 168.594 27.3588 168.437C27.3731 168.366 27.3731 168.266 27.3731 168.18L27.3874 167.908C27.4445 167.194 27.516 166.48 27.6302 165.78C27.7588 165.08 27.916 164.38 28.0731 163.68C28.1445 163.337 28.2302 162.98 28.316 162.637C28.3588 162.466 28.416 162.294 28.4588 162.123C28.516 161.951 28.5588 161.78 28.616 161.608C28.6731 161.437 28.7445 161.266 28.8017 161.108C28.8588 160.937 28.9017 160.78 28.9302 160.608C28.9588 160.437 28.9874 160.266 28.9874 160.094C28.9874 159.923 29.0017 159.737 29.0017 159.566C29.0017 159.208 29.0017 158.866 28.9731 158.508C28.9445 158.151 28.916 157.808 28.8588 157.466C28.7588 156.766 28.5874 156.094 28.3017 155.451C28.016 154.823 27.6017 154.237 27.0445 153.794L27.0588 153.766C27.6731 154.137 28.1588 154.708 28.5017 155.351C28.8445 155.994 29.0445 156.708 29.1588 157.423C29.2731 158.137 29.3017 158.866 29.2588 159.58C29.2588 159.766 29.2445 159.937 29.2302 160.123C29.216 160.308 29.1874 160.494 29.1445 160.666C29.1017 160.837 29.0445 161.023 28.9731 161.194C28.9017 161.366 28.8302 161.523 28.7588 161.68C28.4874 162.337 28.3017 163.023 28.1588 163.723C28.016 164.423 27.9445 165.123 27.8588 165.837L27.6017 167.951L27.5731 168.223C27.5588 168.308 27.5588 168.394 27.5302 168.494C27.4874 168.694 27.3588 168.866 27.2017 168.98C27.0445 169.094 26.8302 169.137 26.6445 169.094C26.5445 169.08 26.4588 169.037 26.3874 169.008C26.3017 168.98 26.216 168.937 26.1445 168.894V168.851Z" fill="#FA996E"/>
  <path d="M50.7741 154.805C51.2312 154.962 51.6598 155.305 51.917 155.748C52.0455 155.976 52.1312 156.219 52.1598 156.476C52.1884 156.733 52.1741 156.99 52.1312 157.248C52.0741 157.505 51.9884 157.733 51.8884 157.962C51.7741 158.19 51.6598 158.405 51.517 158.605C51.2312 159.019 50.9027 159.376 50.5312 159.705C50.817 159.305 51.0884 158.905 51.317 158.49C51.5455 158.076 51.7455 157.633 51.8312 157.176C51.917 156.719 51.8884 156.248 51.7027 155.833C51.5312 155.433 51.1884 155.076 50.7741 154.805Z" fill="#FA996E"/>
  <path d="M22.2326 159.724C22.1326 159.581 22.0612 159.424 22.004 159.267C21.9469 159.11 21.9183 158.938 21.904 158.767C21.8898 158.596 21.904 158.424 21.9326 158.253C21.9612 158.081 22.0183 157.924 22.1183 157.781C22.1469 157.953 22.1469 158.11 22.1612 158.267L22.204 158.738C22.204 159.081 22.2326 159.381 22.2326 159.724Z" fill="#FA996E"/>
  <path d="M34.1312 154.644C33.6884 154.144 33.1741 153.73 32.6027 153.43C32.0313 153.13 31.417 152.93 30.7741 152.872C30.1313 152.815 29.4884 152.887 28.8598 153.058C28.2313 153.23 27.617 153.487 27.0312 153.772C27.5598 153.372 28.1598 153.058 28.8027 152.844C29.117 152.73 29.4598 152.658 29.7884 152.615C30.1313 152.572 30.4741 152.572 30.8027 152.587C31.4884 152.644 32.1455 152.872 32.717 153.23C33.3027 153.587 33.7884 154.072 34.1312 154.644Z" fill="#FA996E"/>
  <path d="M42.7575 155.71C42.2575 155.081 41.6289 154.595 40.9289 154.224C40.2289 153.867 39.4718 153.653 38.7003 153.61C37.9289 153.553 37.1432 153.653 36.3718 153.853C35.6146 154.038 34.8575 154.324 34.1289 154.653C34.8003 154.224 35.5289 153.867 36.3003 153.638C36.5003 153.581 36.6861 153.524 36.8861 153.481C37.0861 153.438 37.286 153.41 37.486 153.367C37.886 153.324 38.3003 153.295 38.7003 153.324C39.1003 153.353 39.5146 153.424 39.9003 153.538C40.2861 153.653 40.6718 153.824 41.0146 154.024C41.7432 154.438 42.3432 155.01 42.7575 155.71Z" fill="#FA996E"/>
  <path d="M51.1279 155.013C50.4565 154.67 49.7565 154.413 49.0279 154.256C48.2993 154.099 47.5708 154.027 46.8279 154.084C46.0993 154.141 45.3708 154.313 44.685 154.599C43.9993 154.884 43.3565 155.27 42.7422 155.699C43.2708 155.17 43.8993 154.727 44.585 154.384C45.2708 154.056 46.0279 153.856 46.7993 153.799C47.5708 153.741 48.3422 153.827 49.0708 154.041C49.8136 154.241 50.5136 154.556 51.1279 155.013Z" fill="#FA996E"/>
  <path d="M50.5555 149.82C50.5269 150.263 50.4984 150.706 50.5126 151.135C50.5269 151.577 50.5555 152.006 50.6126 152.435C50.6698 152.863 50.7412 153.292 50.8269 153.72C50.9126 154.149 51.0269 154.577 51.1269 155.006C50.9126 154.62 50.7412 154.206 50.6126 153.777C50.4698 153.349 50.3841 152.906 50.3269 152.463C50.2698 152.02 50.2555 151.563 50.2984 151.12C50.3126 150.677 50.3984 150.235 50.5555 149.82Z" fill="#FA996E"/>
  <path d="M169.905 88.1894C169.905 88.1894 157.962 94.3466 156.533 106.918C155.105 119.489 167.576 120.404 167.576 120.404C167.576 120.404 192.219 126.018 205.19 114.261C205.19 114.261 221.976 104.189 207.805 88.9751C207.805 88.9751 184.19 57.0466 159.147 38.1465C159.147 38.1465 148.919 26.4465 136.062 27.8465L117.747 26.3608L115.09 27.2323L106.005 26.8608C106.005 26.8608 100.376 27.4894 95.4188 26.2037C94.6903 26.018 94.0331 26.6751 94.2188 27.4037C94.3045 27.7465 94.4617 28.0894 94.7188 28.3608C94.7188 28.3608 90.576 28.518 87.7045 27.9894C86.876 27.8323 86.1474 28.5751 86.3331 29.3894C86.3903 29.6323 86.476 29.8894 86.5903 30.1751L83.4331 30.1323C82.476 30.118 81.8474 31.1037 82.2474 31.9751C82.6188 32.7894 83.4188 33.6037 85.1045 33.8608C85.1045 33.8608 85.0903 36.4323 92.2188 35.518L100.105 35.8751L108.233 35.7894C108.233 35.7894 113.362 38.118 119.562 38.0037L128.162 41.1751C128.162 41.1751 132.876 46.4894 140.105 43.9894C140.105 43.9894 145.947 49.7894 154.547 62.0608C162.719 73.8037 169.905 88.1894 169.905 88.1894Z" fill="#FFC89F"/>
  <path d="M108.202 35.7812C109.845 36.3384 111.502 36.7813 113.173 37.1955C113.588 37.2955 114.016 37.3955 114.43 37.4813C114.845 37.5813 115.273 37.6527 115.702 37.7241C115.916 37.7527 116.13 37.7813 116.345 37.8098C116.559 37.8384 116.773 37.867 116.987 37.867C117.416 37.9098 117.845 37.9241 118.287 37.9384C119.145 37.9813 120.03 38.0384 120.873 38.2527C121.302 38.367 121.716 38.4955 122.116 38.667C122.516 38.8241 122.916 38.9813 123.33 39.1384C124.93 39.7812 126.53 40.4527 128.102 41.167L128.088 41.1955C126.445 40.6384 124.83 40.0384 123.216 39.4241C122.816 39.267 122.416 39.1098 122.016 38.9527C121.616 38.7813 121.216 38.6384 120.802 38.5241C119.988 38.2955 119.13 38.1955 118.273 38.1098C116.545 37.9241 114.83 37.7527 113.116 37.4384C112.259 37.267 111.43 37.0384 110.602 36.767C109.773 36.4955 108.959 36.1955 108.188 35.8241L108.202 35.7812Z" fill="#FA996E"/>
  <path d="M85.0885 33.8594C85.1028 34.0165 85.1742 34.1737 85.2599 34.3022L85.3314 34.4022L85.4171 34.4879L85.4885 34.5737C85.5171 34.6022 85.5456 34.6308 85.5742 34.6451C85.6885 34.7594 85.8314 34.8308 85.9599 34.9165C86.0314 34.9594 86.1028 34.9879 86.1742 35.0308C86.2456 35.0594 86.3171 35.1022 86.3885 35.1308C86.9885 35.3737 87.6314 35.4594 88.2742 35.5165C88.6028 35.5451 88.9171 35.5594 89.2456 35.5594C89.5742 35.5594 89.8885 35.5737 90.2171 35.5451C90.5456 35.5308 90.8742 35.5308 91.1885 35.5022L92.1599 35.4308H92.1742C92.8456 35.4879 93.5028 35.5165 94.1742 35.5451L95.1742 35.5879L96.1742 35.6165C97.5028 35.6308 98.8456 35.6879 100.174 35.7308C101.503 35.7022 102.846 35.6879 104.174 35.7022C105.503 35.7022 106.846 35.7308 108.174 35.7737V35.8022C106.846 35.8737 105.503 35.9165 104.174 35.9594C102.846 36.0022 101.503 36.0165 100.174 36.0165C98.8456 35.9594 97.5028 35.8737 96.1742 35.7737L95.1742 35.7022L94.1742 35.6451C93.5028 35.6022 92.8456 35.5879 92.1742 35.5737H92.1885C91.5314 35.6594 90.8885 35.7594 90.2314 35.8022C90.0599 35.8165 89.9028 35.8308 89.7314 35.8308H89.2314C88.9028 35.8451 88.5742 35.8022 88.2456 35.7737C87.5885 35.7022 86.9171 35.5879 86.3171 35.3022C86.2456 35.2737 86.1742 35.2308 86.0885 35.1879C86.0171 35.1451 85.9314 35.1165 85.8742 35.0594L85.6742 34.9165C85.6028 34.8737 85.5456 34.8022 85.4885 34.7451C85.4599 34.7165 85.4314 34.6879 85.4028 34.6594L85.3314 34.5594L85.2599 34.4594L85.2028 34.3451C85.1171 34.2022 85.0742 34.0308 85.0742 33.8594H85.0885Z" fill="#FA996E"/>
  <path d="M86.561 30.1779C85.7752 30.2208 85.0038 30.2493 84.2181 30.2636H83.6324C83.5324 30.2636 83.4324 30.2636 83.3467 30.2636C83.261 30.2636 83.1752 30.2779 83.0895 30.3065C82.7467 30.3922 82.461 30.6493 82.3324 30.9636C82.261 31.1208 82.2181 31.2922 82.2324 31.4636C82.2324 31.635 82.2895 31.8065 82.361 31.9636C82.5181 32.3065 82.7467 32.6065 83.0181 32.8636C83.5752 33.3779 84.3038 33.6779 85.061 33.8493C84.6752 33.8208 84.2895 33.7493 83.9038 33.6208C83.5324 33.4922 83.1753 33.3065 82.861 33.035C82.5467 32.7779 82.2895 32.4493 82.1038 32.0922C82.0038 31.9065 81.9467 31.6922 81.9324 31.4779C81.9181 31.2636 81.961 31.0493 82.0467 30.8493C82.2181 30.4493 82.5753 30.1493 83.0038 30.035C83.1038 30.0208 83.2181 29.9922 83.3181 29.9922C83.4324 29.9922 83.5181 29.9922 83.6181 29.9922L84.2038 30.0065C85.0181 30.0636 85.7895 30.1065 86.561 30.1779Z" fill="#FA996E"/>
  <path d="M94.6885 28.3608C93.8457 28.4466 92.9885 28.4751 92.1457 28.4751C91.2885 28.4751 90.4457 28.4466 89.5885 28.3751C89.16 28.3323 88.7457 28.2894 88.3171 28.218C88.1028 28.1894 87.9028 28.1465 87.6885 28.1037C87.4885 28.0608 87.3028 28.0608 87.1171 28.118C86.7457 28.2323 86.4457 28.5466 86.36 28.9466C86.3171 29.1466 86.3457 29.3466 86.3885 29.5466C86.4314 29.7466 86.5028 29.9608 86.56 30.1608C86.46 29.9751 86.3743 29.7751 86.3028 29.5751C86.2314 29.3751 86.1743 29.1466 86.2028 28.9323C86.26 28.4751 86.5885 28.0751 87.0314 27.918C87.2457 27.8323 87.5028 27.8323 87.7171 27.8608C87.9314 27.8894 88.1314 27.9323 88.3457 27.9466C88.76 28.0037 89.1885 28.0466 89.6028 28.0751C90.4457 28.1466 91.2885 28.2037 92.1314 28.2465L93.4028 28.3037C93.8314 28.3323 94.26 28.3466 94.6885 28.3608Z" fill="#FA996E"/>
  <path d="M121.274 26.6727C120.96 26.6584 120.631 26.6441 120.317 26.6298C120.003 26.6155 119.674 26.6012 119.36 26.5727C118.717 26.5298 118.088 26.5584 117.46 26.6584C117.145 26.7155 116.845 26.7869 116.545 26.8727C116.245 26.9727 115.931 27.0727 115.617 27.1441C114.974 27.287 114.317 27.3298 113.674 27.287C112.388 27.2155 111.117 27.1155 109.831 27.0584C109.188 27.0298 108.545 27.0155 107.903 26.9869L105.974 26.9441H105.988C104.845 27.0869 103.688 27.1298 102.531 27.1441C101.374 27.1441 100.217 27.1012 99.0741 26.9869C97.9312 26.8727 96.7883 26.6584 95.6741 26.3727L95.4598 26.3155L95.3598 26.287L95.2598 26.2727C95.1312 26.2584 95.0026 26.2584 94.8741 26.287C94.6169 26.3584 94.4026 26.5441 94.2883 26.787C94.2312 26.9012 94.2026 27.0441 94.2026 27.1727C94.2026 27.3012 94.2455 27.4441 94.2883 27.5727C94.3741 27.8441 94.5026 28.1012 94.6883 28.3155L94.6741 28.3298C94.4741 28.1298 94.3169 27.8727 94.2169 27.6012C94.1598 27.4727 94.1169 27.3298 94.1026 27.1727C94.0883 27.0155 94.1026 26.8584 94.1741 26.7155C94.2883 26.4298 94.5312 26.2012 94.8312 26.1012C94.9741 26.0584 95.1455 26.0298 95.3026 26.0584L95.4169 26.0727L95.5169 26.1012L95.7312 26.1441C96.8455 26.4012 97.9741 26.5584 99.1169 26.6727C100.26 26.7727 101.403 26.8441 102.545 26.8584C103.688 26.8584 104.831 26.8298 105.974 26.7441H105.988L107.903 26.8584C108.545 26.887 109.188 26.9298 109.831 26.9584C111.117 27.0155 112.403 27.0155 113.674 27.0441C114.303 27.0584 114.931 27.0155 115.56 26.8727C115.874 26.8155 116.16 26.7155 116.474 26.6298C116.788 26.5441 117.103 26.4727 117.431 26.4155C118.074 26.3155 118.731 26.3155 119.374 26.3869C119.688 26.4155 120.017 26.4584 120.331 26.4869C120.645 26.5298 120.974 26.5584 121.288 26.6012L121.274 26.6727Z" fill="#FA996E"/>
  <path d="M94.8333 28.5C94.9618 28.7286 95.1475 28.9286 95.3333 29.1C95.519 29.2857 95.7333 29.4429 95.9333 29.6C96.3618 29.9143 96.819 30.1714 97.2904 30.4C97.7618 30.6286 98.2618 30.8286 98.7476 31C99.2476 31.1714 99.7475 31.3429 100.262 31.4857C101.29 31.7714 102.348 31.9286 103.405 32C104.462 32.0714 105.533 32.1 106.59 32.1H106.605H106.619C107.19 32.2 107.776 32.3 108.348 32.3857C108.919 32.4857 109.505 32.5714 110.076 32.6571C110.662 32.7429 111.233 32.8286 111.819 32.9C112.405 32.9714 112.976 33.0286 113.562 33.0714V33.1C112.976 33.1286 112.39 33.1143 111.805 33.0857C111.219 33.0571 110.633 33 110.048 32.9286C109.462 32.8571 108.876 32.7857 108.305 32.6857C107.719 32.6 107.148 32.4857 106.576 32.3714H106.605C105.533 32.3429 104.462 32.2714 103.405 32.1286C102.348 31.9857 101.29 31.8286 100.248 31.6143C99.2047 31.4 98.1618 31.1143 97.1904 30.6143C96.7047 30.3714 96.2475 30.0857 95.8333 29.7429C95.6333 29.5714 95.4333 29.3857 95.2475 29.1714C95.0761 28.9714 94.9047 28.7429 94.8047 28.5H94.8333Z" fill="#FA996E"/>
  <path d="M128.346 40.5469C127.203 39.8326 126.06 39.1469 124.917 38.4469C124.346 38.0897 123.774 37.7469 123.188 37.4326C122.588 37.1183 121.988 36.8469 121.346 36.6326C120.717 36.4183 120.074 36.2469 119.417 36.104C119.088 36.0326 118.76 35.9754 118.431 35.9326C118.088 35.8754 117.76 35.804 117.431 35.7183C116.774 35.5183 116.146 35.2612 115.56 34.904C114.974 34.5469 114.46 34.0897 114.031 33.5612L114.046 33.5469C115.017 34.4754 116.231 35.0754 117.503 35.4326C117.817 35.5183 118.146 35.5897 118.474 35.6469C118.803 35.704 119.146 35.7754 119.46 35.8612C120.117 36.0183 120.76 36.2326 121.388 36.504C121.703 36.6326 122.003 36.7754 122.303 36.9326L123.203 37.3754L124.117 37.8183C124.417 37.9754 124.717 38.1183 125.017 38.2754C125.603 38.5897 126.174 38.9612 126.731 39.3326C127.288 39.7183 127.831 40.1183 128.346 40.5469Z" fill="#FA996E"/>
  <path d="M86.6328 30.2969C86.8042 30.6397 87.0614 30.954 87.3471 31.2254C87.6328 31.4969 87.9471 31.7254 88.2757 31.9254C88.9471 32.3254 89.69 32.5683 90.4614 32.7397C91.2185 32.8969 92.0042 32.9969 92.79 33.0254C93.5757 33.054 94.3757 33.0112 95.1471 32.8969C95.7185 32.9397 96.29 32.9969 96.8757 33.0254L98.6042 33.1397C99.1757 33.1826 99.7614 33.2254 100.333 33.2683L102.061 33.4112H102.076H102.09C102.361 33.4683 102.633 33.5254 102.904 33.5826C103.176 33.6397 103.447 33.6826 103.733 33.7397C104.29 33.8397 104.833 33.9254 105.39 33.9969C105.947 34.0683 106.504 34.1397 107.061 34.1969C107.619 34.254 108.176 34.2826 108.733 34.3112V34.3397C108.176 34.3683 107.604 34.3826 107.047 34.354C106.49 34.3397 105.919 34.2969 105.361 34.2397C104.804 34.1826 104.247 34.1112 103.69 34.0254C103.133 33.9397 102.576 33.8397 102.033 33.7112H102.047L100.319 33.5397C99.7471 33.4826 99.1757 33.4254 98.6042 33.3683L96.89 33.1683C96.3185 33.0969 95.7471 33.0397 95.1757 32.9826H95.19C94.4042 33.0826 93.6185 33.154 92.8185 33.1826C92.0185 33.2112 91.2185 33.154 90.4328 32.9826C90.0471 32.8969 89.6614 32.7826 89.2757 32.6397C88.9042 32.4826 88.5328 32.3112 88.2042 32.0969C87.8614 31.8826 87.5614 31.6112 87.2757 31.3254C87.0042 31.0254 86.7757 30.6969 86.6328 30.3112V30.2969Z" fill="#FA996E"/>
  <path d="M85.3594 33.8475L88.5308 33.819C89.0594 33.8047 89.5879 33.8047 90.1165 33.8047C90.6451 33.8047 91.1737 33.819 91.7022 33.8047C92.4022 33.8761 93.1022 33.919 93.8022 33.9333C94.5022 33.9475 95.2022 33.9475 95.9022 33.9618C96.6022 33.9618 97.3022 33.9761 98.0022 33.9618H100.102H100.117C100.659 34.0333 101.202 34.1047 101.745 34.2047C102.288 34.2904 102.831 34.3761 103.374 34.4761V34.5047C102.817 34.4761 102.274 34.4333 101.731 34.3904C101.188 34.3475 100.631 34.2904 100.088 34.2475H100.102C99.4022 34.2761 98.7022 34.2904 98.0022 34.2761C97.3022 34.2618 96.6022 34.2475 95.9022 34.2047C95.2022 34.1761 94.5022 34.119 93.8022 34.0618C93.1022 34.0047 92.4022 33.9618 91.7022 33.919H91.7165C91.1879 33.9618 90.6594 34.0047 90.1308 34.0333C89.6022 34.0618 89.0737 34.0761 88.5451 34.0761C88.0165 34.0761 87.4879 34.0618 86.9594 34.0333C86.4308 34.0047 85.9022 33.9618 85.3737 33.8904L85.3594 33.8475Z" fill="#FA996E"/>
  <path d="M140.047 43.9759C140.233 43.6902 140.39 43.4045 140.518 43.1045C140.647 42.8045 140.747 42.4902 140.818 42.1759C140.833 42.0902 140.847 42.0188 140.861 41.933L140.89 41.8187C140.89 41.7759 140.904 41.733 140.904 41.7045C140.918 41.6187 140.933 41.5473 140.933 41.4616C140.933 41.3759 140.947 41.3045 140.947 41.2188L140.961 41.0902V40.9616L140.975 40.7188C140.975 40.5473 140.961 40.3902 140.975 40.2188C141.033 40.3759 141.075 40.5473 141.118 40.7045C141.147 40.8759 141.175 41.0473 141.175 41.2188C141.204 41.5616 141.161 41.9045 141.09 42.2473C141.004 42.5902 140.89 42.9188 140.718 43.2188C140.547 43.5045 140.318 43.7902 140.047 43.9759Z" fill="#FA996E"/>
  <path d="M169.902 88.1875C170.259 89.0446 170.617 89.8875 171.017 90.7161C171.402 91.5589 171.817 92.3875 172.245 93.2018C173.102 94.8304 174.002 96.4447 175.002 97.9875C175.988 99.5447 177.059 101.045 178.231 102.473C179.388 103.902 180.659 105.245 182.045 106.473C181.688 106.173 181.317 105.902 180.988 105.588C180.817 105.43 180.645 105.288 180.474 105.13L179.974 104.659C179.317 104.002 178.674 103.33 178.074 102.63C177.459 101.93 176.902 101.202 176.345 100.445C175.802 99.7018 175.274 98.9304 174.774 98.1589C174.274 97.3732 173.802 96.5875 173.345 95.7732C172.888 94.9589 172.459 94.1446 172.045 93.3161C171.645 92.4875 171.259 91.6447 170.888 90.7875C170.702 90.3589 170.531 89.9304 170.374 89.5018C170.202 89.0589 170.045 88.6161 169.902 88.1875Z" fill="#FA996E"/>
</svg>