<svg xmlns="http://www.w3.org/2000/svg" width="47" height="42" viewBox="0 0 47 42" fill="none">
<path d="M7.40044 6.17701C15.6004 -1.63728 28.5862 -1.323 36.4004 6.877C42.2861 13.0484 43.5576 21.9341 40.329 29.277L46.6004 36.1341L35.7004 35.8627C27.5004 43.677 14.5147 43.3627 6.70044 35.1627C-1.11384 26.9627 -0.799559 13.9913 7.40044 6.17701Z" fill="white"/>
<path d="M46.6035 36.154C46.1035 35.554 45.6035 34.9683 45.0892 34.3969C44.5749 33.8112 44.0606 33.2397 43.532 32.6683C43.0035 32.0969 42.4892 31.5254 41.9463 30.9683C41.4177 30.4112 40.8749 29.854 40.332 29.2969C40.832 29.8969 41.332 30.4826 41.8463 31.054C42.3606 31.6397 42.8749 32.2112 43.4035 32.7826C43.932 33.354 44.4463 33.9254 44.9892 34.4826C45.5035 35.0397 46.0463 35.5969 46.6035 36.154Z" fill="#1B1A2E"/>
<path d="M35.6875 35.8857C36.6018 35.9429 37.5018 35.9857 38.4161 36.0286C39.3304 36.0714 40.2304 36.0857 41.1446 36.1143C42.0589 36.1286 42.9589 36.1571 43.8732 36.1571C44.7875 36.1714 45.6875 36.1714 46.6018 36.1571C45.6875 36.1 44.7875 36.0571 43.8732 36.0143C42.9589 35.9714 42.0589 35.9571 41.1446 35.9286C40.2304 35.9143 39.3304 35.8857 38.4161 35.8857C37.5161 35.8714 36.6018 35.8714 35.6875 35.8857Z" fill="#1B1A2E"/>
<path d="M40.3313 29.2824C40.8313 28.1253 41.2456 26.9396 41.5313 25.711C41.8171 24.4824 42.0028 23.2396 42.0599 21.9681C42.1885 19.4538 41.8456 16.911 41.0599 14.511C40.2742 12.111 39.0313 9.86813 37.4313 7.91098C35.8171 5.96813 33.8742 4.2967 31.6599 3.05384C30.5599 2.42527 29.4028 1.91099 28.2028 1.4967C27.0028 1.08242 25.7742 0.796701 24.5171 0.610987C22.0171 0.239558 19.4456 0.339558 16.9742 0.896701C14.5028 1.43956 12.1313 2.46812 10.0313 3.88241C8.9742 4.58241 7.98848 5.3967 7.08848 6.28242C6.18848 7.16813 5.34563 8.12527 4.63134 9.16812C3.1742 11.2396 2.11706 13.5824 1.50277 16.0396C0.888487 18.4967 0.745629 21.0681 1.05992 23.5824C1.35992 26.0967 2.15992 28.5538 3.35992 30.7824C4.55992 33.011 6.1742 35.011 8.08848 36.6681C10.0028 38.311 12.2313 39.5967 14.6171 40.4396C17.0028 41.2824 19.5313 41.6824 22.0599 41.611C24.5885 41.5396 27.0885 40.9967 29.4171 40.011C31.7456 39.0396 33.8742 37.6253 35.6885 35.8824C33.8599 37.611 31.7171 38.9967 29.3885 39.9396C27.0599 40.8967 24.5599 41.411 22.0599 41.4538C19.5456 41.511 17.0313 41.0967 14.6742 40.2538C12.3171 39.411 10.1171 38.1253 8.23134 36.4824C7.28848 35.6681 6.41706 34.7538 5.63134 33.7824C4.84563 32.811 4.15992 31.7538 3.55992 30.6538C2.3742 28.4538 1.60277 26.0253 1.30277 23.5396C1.00277 21.0538 1.15991 18.5253 1.75991 16.0967C2.35991 13.6681 3.41706 11.3538 4.85992 9.31098C5.5742 8.28241 6.38849 7.33955 7.28849 6.45384C8.18849 5.58241 9.15991 4.78241 10.1885 4.08241C12.2599 2.68241 14.5885 1.66813 17.0313 1.12527C19.4742 0.568126 22.0171 0.482412 24.4885 0.839555C26.9599 1.1967 29.3742 2.01098 31.5599 3.22527C33.7456 4.43956 35.6885 6.0967 37.3028 8.01098C38.9028 9.93956 40.1456 12.1681 40.9456 14.5396C41.7456 16.911 42.1028 19.4396 42.0028 21.9538C41.9456 23.211 41.7742 24.4538 41.5028 25.6824C41.2171 26.9396 40.8313 28.1253 40.3313 29.2824Z" fill="#1B1A2E"/>
<path d="M31.6576 28.6509L27.9862 24.9795C27.7719 24.7652 27.4862 24.6652 27.2147 24.6795L24.529 21.9938C26.5576 19.4938 26.4004 15.7938 24.0719 13.4652C22.8719 12.2652 21.2576 11.5938 19.5576 11.5938C17.8576 11.5938 16.2433 12.2509 15.0433 13.4652C13.8433 14.6652 13.1719 16.2795 13.1719 17.9795C13.1719 19.6795 13.829 21.2938 15.0433 22.4938C16.2433 23.6938 17.8576 24.3652 19.5576 24.3652C21.029 24.3652 22.429 23.8652 23.5719 22.9509L26.2576 25.6366C26.2433 25.908 26.3433 26.1938 26.5576 26.408L30.229 30.0795C30.429 30.2795 30.6862 30.3795 30.9433 30.3795C31.2004 30.3795 31.4576 30.2795 31.6576 30.0795C32.0433 29.6938 32.0433 29.0509 31.6576 28.6509ZM16.0147 21.5652C15.0576 20.608 14.5433 19.3509 14.5433 18.008C14.5433 16.6652 15.0719 15.3937 16.0147 14.4509C16.9719 13.4937 18.229 12.9795 19.5719 12.9795C20.9147 12.9795 22.1862 13.508 23.129 14.4509C25.0862 16.408 25.0862 19.608 23.129 21.5652C22.1719 22.5223 20.9147 23.0366 19.5719 23.0366C18.229 23.0366 16.9576 22.508 16.0147 21.5652Z" fill="#1F4068"/>
</svg>